<svg xmlns="http://www.w3.org/2000/svg" width="604.325" height="113.68"><path d="M118.224 62.481h3.18V42.027h-3.18v-2.4h10.775c4.7 0 8.126 1.555 8.126 6.536v.141a5.166 5.166 0 01-3.816 5.334c3.674.884 5.052 2.756 5.052 6.042v.141c0 4.769-3.25 7.066-8.3 7.066h-11.837zm10.775-11.835c3.71 0 5.122-1.341 5.122-4.451v-.141c0-2.861-1.66-4.027-5.193-4.027h-4.522v8.619zm.99 11.835c3.673 0 5.369-1.625 5.369-4.7v-.141c0-3.11-1.731-4.593-5.794-4.593h-5.158v9.432zm10.489 2.404v-2.3h2.578V48.81h-2.649v-2.4h5.581v3.533c.884-1.943 2.756-3.816 6.642-3.85v2.9c-4.027-.034-6.642 1.236-6.642 5.758v7.834h2.827v2.3zm13.598-9.046v-.283c0-5.583 3.567-9.468 8.655-9.468 4.275 0 8.3 2.579 8.3 9.185v.953h-13.917c.141 4.2 2.155 6.535 5.936 6.535 2.862 0 4.522-1.059 4.91-3.214h2.932c-.635 3.709-3.709 5.652-7.877 5.652-5.23.001-8.939-3.671-8.939-9.36zm13.954-1.979c-.283-3.816-2.261-5.334-5.3-5.334-3 0-5.017 2.048-5.512 5.334zm5.084 11.025v-2.3h2.579V48.81h-2.65v-2.4h5.582v3.11a6.347 6.347 0 015.794-3.435c3.709 0 6.43 1.978 6.43 7.313v9.187h2.578v2.3h-8.161v-2.3h2.649v-9.4c0-3.11-1.413-4.558-4.275-4.558a4.788 4.788 0 00-5.016 4.982v8.976h2.655v2.3zm32.956-2.862v2.861h-2.615v-7.737h2.615a6.526 6.526 0 006.747 5.651c3.11 0 5.441-1.908 5.441-4.628 0-2.862-1.307-4.381-5.865-5.122-5.052-.813-8.549-2.686-8.549-7.067 0-4.027 3.109-6.677 7.7-6.677 3.5 0 5.158 1.272 5.969 2.756v-2.436h2.58v6.677h-2.509a5.694 5.694 0 00-5.934-4.593c-3.075 0-4.946 1.518-4.946 3.957 0 2.331 1.306 3.815 6.181 4.663 5.371.918 8.338 2.755 8.338 7.6 0 4.31-3.534 7.276-8.444 7.276-3.176-.003-5.614-1.136-6.709-3.181zm32.214-15.617h2.578v6.254h-2.509a5.144 5.144 0 00-5.476-4.133c-3.356 0-5.935 2.684-5.935 7.03v.283c0 4.522 2.473 6.923 6.041 6.923a4.991 4.991 0 005.3-4.521h2.721a7.711 7.711 0 01-8.055 6.959c-5.158 0-9.044-3.638-9.044-9.361v-.283c0-5.654 4.027-9.468 8.973-9.468 3.109 0 4.664 1.235 5.4 2.721zm5.014 18.477v-2.3h2.579V39.977h-2.649v-2.4h5.581v11.939a6.346 6.346 0 015.794-3.427c3.71 0 6.43 1.978 6.43 7.313v9.184h2.576v2.3h-8.16v-2.3h2.649v-9.391c0-3.11-1.413-4.558-4.275-4.558a4.788 4.788 0 00-5.016 4.982v8.972h2.65v2.3zm21.9-9.08v-.283c0-5.547 3.851-9.432 9.079-9.432s9.08 3.85 9.08 9.4v.283c0 5.582-3.852 9.432-9.115 9.432s-9.044-3.994-9.044-9.4zm15.121 0v-.246c0-4.276-2.367-7.03-6.042-7.03-3.71 0-6.041 2.754-6.041 6.994v.283c0 4.2 2.3 6.959 6.041 6.959 3.711-.001 6.042-2.791 6.042-6.96zm5.361 0v-.283c0-5.547 3.851-9.432 9.079-9.432s9.079 3.85 9.079 9.4v.283c0 5.582-3.85 9.432-9.115 9.432s-9.043-3.994-9.043-9.4zm15.121 0v-.246c0-4.276-2.367-7.03-6.042-7.03-3.709 0-6.04 2.754-6.04 6.994v.283c0 4.2 2.3 6.959 6.04 6.959 3.715-.001 6.046-2.791 6.046-6.96zm4.982 9.08v-2.3h2.579V39.977h-2.65v-2.4h5.618v25.01h2.579v2.3zm17.484-9.08v-.283c0-5.547 3.851-9.432 9.079-9.432s9.079 3.85 9.079 9.4v.283c0 5.582-3.85 9.432-9.115 9.432s-9.043-3.994-9.043-9.4zm15.121 0v-.246c0-4.276-2.367-7.03-6.042-7.03-3.709 0-6.041 2.754-6.041 6.994v.283c0 4.2 2.3 6.959 6.041 6.959 3.71-.001 6.042-2.791 6.042-6.96zm5.119 9.08v-2.3h2.578V48.88h-2.649v-2.474h2.649v-3c0-3.744 1.838-5.934 5.511-5.934a5.938 5.938 0 012.191.353v2.47a5.768 5.768 0 00-2.085-.389c-1.906 0-2.684 1.308-2.684 3.215v3.285h4.522v2.474h-4.522v13.707h3.321v2.3zm19.713-2.402h3.179V42.027h-3.179v-2.4h18.759v5.9h-2.861v-3.5h-9.648v8.69h7.736v-2.26h2.544v7.03h-2.544v-2.262h-7.736v9.256h10.35v-4.063h2.861v6.465H363.22zm22.072 2.404v-2.3h2.578V48.81h-2.649v-2.4h5.582v3.11a6.344 6.344 0 015.793-3.427c3.71 0 6.43 1.978 6.43 7.313v9.179h2.579v2.3h-8.161v-2.3h2.65v-9.4c0-3.11-1.414-4.558-4.275-4.558a4.788 4.788 0 00-5.016 4.982v8.976h2.649v2.3zM423.16 48.81l-5.758 16.074h-3.568l-6.005-16.074h-2.3v-2.4h8.09v2.4h-2.614l4.772 13.315 4.522-13.318h-2.65v-2.4h7.77v2.4zm3.6 16.073v-2.3h2.578V48.809h-2.649v-2.408h5.582v16.18h2.65v2.3zm1.872-24.306a2.014 2.014 0 014.027 0 2.014 2.014 0 11-4.027 0zm7.842 24.308v-2.3h2.578V48.81h-2.649v-2.4h5.579v3.533c.883-1.943 2.755-3.816 6.641-3.85v2.9c-4.027-.034-6.641 1.236-6.641 5.758v7.834h2.826v2.3zm13.597-9.082v-.283c0-5.547 3.851-9.432 9.079-9.432s9.079 3.85 9.079 9.4v.283c0 5.582-3.85 9.432-9.115 9.432s-9.043-3.994-9.043-9.4zm15.121 0v-.246c0-4.276-2.366-7.03-6.042-7.03-3.709 0-6.04 2.754-6.04 6.994v.283c0 4.2 2.3 6.959 6.04 6.959 3.711-.001 6.042-2.791 6.042-6.96zm5.155 9.082v-2.3h2.579V48.81h-2.649v-2.4h5.582v3.11a6.348 6.348 0 015.794-3.427c3.709 0 6.43 1.978 6.43 7.313v9.179h2.578v2.3H482.5v-2.3h2.649v-9.4c0-3.11-1.413-4.558-4.275-4.558a4.788 4.788 0 00-5.016 4.982v8.976h2.649v2.3zm21.864 0v-2.3h2.578V48.81h-2.647v-2.4h5.582v3.035a5.821 5.821 0 015.406-3.356 5.263 5.263 0 015.4 3.743 6.725 6.725 0 016.112-3.747c3.321 0 6.111 1.978 6.111 7.348v9.152h2.58v2.3h-8.162v-2.3h2.65v-9.36c0-3.251-1.272-4.593-3.816-4.593a4.641 4.641 0 00-4.769 4.946v9.007h2.65v2.3h-8.231v-2.3h2.649v-9.36c0-3.251-1.272-4.593-3.816-4.593a4.641 4.641 0 00-4.769 4.946v9.007h2.649v2.3zm32.708-9.046v-.283c0-5.583 3.569-9.468 8.656-9.468 4.275 0 8.3 2.579 8.3 9.185v.953h-13.917c.141 4.2 2.155 6.535 5.935 6.535 2.862 0 4.522-1.059 4.911-3.214h2.932c-.636 3.709-3.71 5.652-7.878 5.652-5.229.001-8.939-3.671-8.939-9.36zm13.956-1.979c-.283-3.816-2.261-5.334-5.3-5.334-3 0-5.016 2.048-5.511 5.334zm5.083 11.025v-2.3h2.578V48.81h-2.649v-2.4h5.582v3.11a6.344 6.344 0 015.789-3.435c3.71 0 6.43 1.978 6.43 7.313v9.187h2.579v2.3h-8.161v-2.3h2.65v-9.4c0-3.11-1.414-4.558-4.275-4.558a4.788 4.788 0 00-5.016 4.982v8.976h2.649v2.3zm23.631-4.63V48.88h-2.649v-2.474h2.649v-4.2h2.932v4.2h4.769v2.474h-4.769v11.092c0 1.768.812 2.685 2.649 2.685a7.661 7.661 0 002.4-.423v2.472a8.473 8.473 0 01-2.65.424c-3.705 0-5.331-1.978-5.331-4.875zm15.966 4.945c-3.355 0-6.006-1.661-6.006-5.44 0-4.31 4.451-5.723 9.115-5.723h2.58v-1.341c0-3.109-1.237-4.169-3.886-4.169-2.473 0-3.816.918-4.1 3.319h-2.932c.353-4.345 3.673-5.757 7.172-5.757 3.462 0 6.677 1.272 6.677 6.607v9.889h2.473v2.3h-5.4v-2.546a6.2 6.2 0 01-5.693 2.861zm5.688-6.783v-2.3h-2.474c-3.638 0-6.287.955-6.287 3.638 0 1.661.847 3.109 3.356 3.109 3.037.005 5.406-1.584 5.406-4.446zm6.957 6.466v-2.3h2.58V39.977h-2.649v-2.4h5.617v25.01h2.579v2.3zm-474.584 39.189v2.861h-2.618v-7.736h2.614a6.526 6.526 0 006.748 5.651c3.108 0 5.44-1.908 5.44-4.628 0-2.862-1.307-4.381-5.864-5.122-5.053-.813-8.549-2.686-8.549-7.067 0-4.027 3.108-6.677 7.7-6.677 3.5 0 5.159 1.272 5.971 2.756v-2.436h2.578v6.677h-2.508a5.7 5.7 0 00-5.936-4.593c-3.073 0-4.946 1.518-4.946 3.957 0 2.331 1.308 3.815 6.183 4.663 5.37.918 8.337 2.755 8.337 7.6 0 4.31-3.533 7.276-8.443 7.276-3.175-.004-5.612-1.137-6.707-3.182zm32.215-15.617h2.578v6.254h-2.508a5.146 5.146 0 00-5.476-4.133c-3.355 0-5.935 2.684-5.935 7.03v.283c0 4.522 2.473 6.923 6.041 6.923a4.992 4.992 0 005.3-4.521h2.72a7.712 7.712 0 01-8.055 6.959c-5.158 0-9.044-3.638-9.044-9.361v-.283c0-5.654 4.027-9.468 8.973-9.468 3.109 0 4.663 1.235 5.406 2.721zm5.19 18.477v-2.3h2.578V90.858h-2.649v-2.4h5.582v16.18h2.649v2.3zm1.872-24.306a2.014 2.014 0 014.027 0 2.014 2.014 0 01-4.027 0zm8.052 15.262v-.283c0-5.583 3.568-9.468 8.655-9.468 4.275 0 8.3 2.579 8.3 9.185v.953h-13.92c.141 4.2 2.155 6.535 5.935 6.535 2.863 0 4.522-1.059 4.91-3.214h2.933c-.636 3.709-3.71 5.652-7.879 5.652-5.225.001-8.934-3.671-8.934-9.36zm13.955-1.979c-.283-3.816-2.261-5.334-5.3-5.334-3 0-5.016 2.048-5.511 5.334zm5.084 11.025v-2.3h2.579V90.859h-2.65v-2.4h5.582v3.11a6.346 6.346 0 015.794-3.427c3.71 0 6.43 1.978 6.43 7.313v9.179h2.578v2.3h-8.16v-2.3h2.649v-9.4c0-3.11-1.413-4.558-4.275-4.558a4.788 4.788 0 00-5.016 4.982v8.976h2.65v2.3zm36.278-18.479h2.579v6.254h-2.508a5.144 5.144 0 00-5.476-4.133c-3.356 0-5.936 2.684-5.936 7.03v.283c0 4.522 2.473 6.923 6.042 6.923a4.991 4.991 0 005.3-4.521h2.721a7.712 7.712 0 01-8.055 6.959c-5.158 0-9.044-3.638-9.044-9.361v-.283c0-5.654 4.027-9.468 8.973-9.468 3.109 0 4.663 1.235 5.4 2.721zm5.226 9.433v-.283c0-5.583 3.568-9.468 8.655-9.468 4.276 0 8.3 2.579 8.3 9.185v.953h-13.92c.141 4.2 2.155 6.535 5.935 6.535 2.863 0 4.522-1.059 4.911-3.214h2.938c-.636 3.709-3.71 5.652-7.879 5.652-5.23.001-8.94-3.671-8.94-9.36zm13.955-1.979c-.283-3.816-2.261-5.334-5.3-5.334-3 0-5.016 2.048-5.511 5.334zm21.332 11.274c-4.628 0-7.983-2.754-7.983-6.923 0-3.994 2.543-6.007 5.794-7.6a8.81 8.81 0 01-2.226-5.334c0-3.816 3-5.794 6.183-5.794a5.2 5.2 0 015.546 5.192c0 3.073-2.226 5.157-5.44 6.535l5.3 6.465 3-5.83h3.673v2.3h-2.155l-2.862 5.583 2.332 2.861h2.332v2.3h-3.993l-2.508-3.038a8.924 8.924 0 01-6.993 3.283zm5.476-5.158l-6.289-7.666c-2.472 1.2-4.2 2.649-4.2 5.618 0 3.037 1.944 4.8 5.122 4.8a6.86 6.86 0 005.368-2.756zm-4.876-10.385c2.827-1.272 3.921-2.545 3.921-4.982a2.736 2.736 0 00-2.861-2.826c-1.767 0-3.25 1.06-3.25 3.532.001 1.268.813 2.54 2.191 4.272zm32.25 15.293h-9.185v-2.4h3.179V84.075h-3.179v-2.4h7.948l7.314 19.534 7.206-19.534h7.772v2.4h-3.18v20.455h3.18v2.4h-9.433v-2.4h3.18V84.888l-8.367 22.045h-.955l-8.655-22.045v19.642h3.18zm28.963.316c-3.356 0-6.006-1.661-6.006-5.44 0-4.31 4.451-5.723 9.115-5.723h2.579v-1.341c0-3.109-1.237-4.169-3.886-4.169-2.473 0-3.815.918-4.1 3.319h-2.933c.353-4.345 3.674-5.757 7.172-5.757 3.462 0 6.677 1.272 6.677 6.607v9.889h2.476v2.3h-5.4v-2.544a6.2 6.2 0 01-5.694 2.859zm5.688-6.783v-2.3h-2.473c-3.639 0-6.288.955-6.288 3.638 0 1.661.849 3.109 3.356 3.109 3.038.005 5.405-1.584 5.405-4.446zm6.957 6.468v-2.3h2.578V90.859h-2.649v-2.4h5.582v3.11a6.344 6.344 0 015.793-3.427c3.71 0 6.43 1.978 6.43 7.313v9.179h2.579v2.3h-8.161v-2.3h2.65v-9.4c0-3.11-1.414-4.558-4.275-4.558a4.788 4.788 0 00-5.016 4.982v8.976h2.649v2.3zm28.116.315c-3.356 0-6.006-1.661-6.006-5.44 0-4.31 4.452-5.723 9.115-5.723h2.578v-1.341c0-3.109-1.237-4.169-3.886-4.169-2.473 0-3.815.918-4.1 3.319h-2.933c.353-4.345 3.675-5.757 7.172-5.757 3.462 0 6.677 1.272 6.677 6.607v9.889h2.473v2.3h-5.4v-2.544a6.2 6.2 0 01-5.69 2.859zm5.688-6.783v-2.3h-2.473c-3.64 0-6.289.955-6.289 3.638 0 1.661.849 3.109 3.356 3.109 3.043.005 5.406-1.584 5.406-4.446zm7.382 7.526h3c.425 2.118 2.191 3.214 5.335 3.214 3.638 0 5.935-1.732 5.935-5.688v-2.684a7.656 7.656 0 01-6.248 3.5c-4.841 0-8.408-3.674-8.408-8.761v-.246c0-5.016 3.532-9.185 8.62-9.185a6.618 6.618 0 016.041 3.286v-2.969h5.441v2.4h-2.509v14.837c-.035 5.37-3.674 7.984-8.832 7.984-5.479-.001-7.881-2.579-8.375-5.688zm14.378-10.634v-.246c0-4.134-2.261-6.535-5.864-6.535-3.674 0-5.865 2.72-5.865 6.606v.283c0 4.027 2.579 6.429 5.688 6.429 3.426-.001 6.041-2.403 6.041-6.537zm6.815.53v-.283c0-5.583 3.567-9.468 8.655-9.468 4.275 0 8.3 2.579 8.3 9.185v.953H404.65c.141 4.2 2.155 6.535 5.936 6.535 2.861 0 4.522-1.059 4.911-3.214h2.932c-.636 3.709-3.709 5.652-7.877 5.652-5.231.001-8.94-3.671-8.94-9.36zm13.954-1.979c-.283-3.816-2.261-5.334-5.3-5.334-3 0-5.017 2.048-5.512 5.334zm5.085 11.025v-2.3h2.578V90.859h-2.649v-2.4h5.582v3.039a5.821 5.821 0 015.406-3.356 5.263 5.263 0 015.4 3.743 6.725 6.725 0 016.111-3.743c3.321 0 6.111 1.978 6.111 7.348v9.15h2.58v2.3h-8.156v-2.3h2.65v-9.366c0-3.251-1.272-4.593-3.816-4.593a4.641 4.641 0 00-4.769 4.946v9.007h2.65v2.3h-8.232v-2.3h2.65v-9.36c0-3.251-1.272-4.593-3.816-4.593a4.641 4.641 0 00-4.769 4.946v9.007h2.649v2.3zm32.707-9.046v-.283c0-5.583 3.569-9.468 8.656-9.468 4.275 0 8.3 2.579 8.3 9.185v.953h-13.917c.141 4.2 2.155 6.535 5.935 6.535 2.862 0 4.522-1.059 4.911-3.214h2.933c-.636 3.709-3.71 5.652-7.878 5.652-5.23.001-8.94-3.671-8.94-9.36zm13.956-1.979c-.283-3.816-2.261-5.334-5.3-5.334-3 0-5.016 2.048-5.511 5.334zm5.083 11.025v-2.3h2.578V90.859h-2.649v-2.4h5.582v3.11a6.344 6.344 0 015.793-3.427c3.71 0 6.43 1.978 6.43 7.313v9.179h2.579v2.3h-8.161v-2.3h2.65v-9.4c0-3.11-1.414-4.558-4.275-4.558a4.788 4.788 0 00-5.016 4.982v8.976h2.649v2.3zm23.631-4.63V90.929h-2.649v-2.474h2.649v-4.2h2.932v4.2h4.769v2.474h-4.769v11.092c0 1.768.813 2.685 2.65 2.685a7.652 7.652 0 002.4-.423v2.472a8.465 8.465 0 01-2.649.424c-3.707 0-5.333-1.978-5.333-4.875zM318.758 4.349h3.06l7.3 16.792h-4.174l-1.445-3.557h-6.52l-1.4 3.557h-4.08zm1.423 4.886l-2.039 5.217h4.1zm-22.747-4.886h6.262a15.875 15.875 0 012.194.154 6.006 6.006 0 011.98.617 3.8 3.8 0 011.423 1.293 3.966 3.966 0 01.545 2.206 3.527 3.527 0 01-.794 2.36 4.363 4.363 0 01-2.1 1.34v.048a4.806 4.806 0 011.506.462 4.02 4.02 0 011.161.878 3.736 3.736 0 01.748 1.245 4.371 4.371 0 01.261 1.518 4.04 4.04 0 01-.569 2.218 4.488 4.488 0 01-1.47 1.435 6.465 6.465 0 01-2.028.782 10.852 10.852 0 01-2.241.237h-6.878zm3.7 6.713h2.68a3.73 3.73 0 00.842-.1 2.306 2.306 0 00.747-.308 1.6 1.6 0 00.534-.569 1.7 1.7 0 00.2-.854 1.557 1.557 0 00-.225-.866 1.577 1.577 0 00-.581-.533 2.786 2.786 0 00-.806-.272 4.832 4.832 0 00-.878-.083h-2.514zm0 6.949h3.32a4.1 4.1 0 00.866-.1 2.294 2.294 0 00.795-.332 1.889 1.889 0 00.581-.616 1.788 1.788 0 00.225-.925 1.484 1.484 0 00-.3-.96 1.886 1.886 0 00-.747-.558 3.845 3.845 0 00-.973-.261 7.148 7.148 0 00-.972-.071h-2.8zm29.751-13.662h6.5a11.433 11.433 0 012.431.249 5.779 5.779 0 012.017.83 4.147 4.147 0 011.376 1.565 5.3 5.3 0 01.51 2.455 4.93 4.93 0 01-.925 3.024 4.163 4.163 0 01-2.7 1.577l4.269 7.092h-4.435l-3.51-6.713h-1.826v6.713h-3.7zm3.7 6.949h2.181q.5 0 1.055-.035a3.332 3.332 0 001.008-.214 1.749 1.749 0 00.747-.558 1.7 1.7 0 00.3-1.067 1.778 1.778 0 00-.261-1.02 1.758 1.758 0 00-.664-.581 2.962 2.962 0 00-.925-.272 7.608 7.608 0 00-1.02-.071h-2.419zm-65.806-6.949h3.059l7.306 16.792h-4.175l-1.446-3.557H267l-1.4 3.557h-4.08zm1.423 4.886l-2.039 5.217h4.1zm82.761-4.886h3.06l7.3 16.792h-4.174l-1.447-3.557h-6.522l-1.4 3.557h-4.08zm1.423 4.886l-2.039 5.217h4.1zM247.454 4.347h6.262a15.865 15.865 0 012.194.154 5.985 5.985 0 011.981.616 3.8 3.8 0 011.418 1.294 3.963 3.963 0 01.546 2.205 3.52 3.52 0 01-.795 2.36 4.371 4.371 0 01-2.1 1.341v.047a4.807 4.807 0 011.506.463 4.048 4.048 0 011.162.877 3.755 3.755 0 01.747 1.245 4.372 4.372 0 01.261 1.518 4.029 4.029 0 01-.569 2.218 4.472 4.472 0 01-1.47 1.435 6.446 6.446 0 01-2.028.783 10.852 10.852 0 01-2.241.237h-6.878zm3.7 6.712h2.68a3.772 3.772 0 00.842-.1 2.307 2.307 0 00.747-.309 1.591 1.591 0 00.534-.569 1.706 1.706 0 00.2-.854 1.547 1.547 0 00-.225-.865 1.57 1.57 0 00-.581-.533 2.787 2.787 0 00-.806-.273 4.823 4.823 0 00-.877-.083h-2.515zm0 6.95h3.321a4.047 4.047 0 00.865-.1 2.27 2.27 0 00.795-.331 1.884 1.884 0 00.581-.617 1.784 1.784 0 00.225-.925 1.484 1.484 0 00-.3-.96 1.9 1.9 0 00-.747-.558 3.87 3.87 0 00-.973-.261 7.268 7.268 0 00-.972-.071h-2.8zm29.751-13.662h6.5a11.446 11.446 0 012.431.249 5.781 5.781 0 012.016.83 4.15 4.15 0 011.376 1.566 5.3 5.3 0 01.51 2.454 4.93 4.93 0 01-.925 3.024 4.159 4.159 0 01-2.7 1.577l4.27 7.092h-4.435l-3.511-6.712h-1.826v6.712h-3.7zm3.7 6.949h2.179q.5 0 1.056-.035a3.326 3.326 0 001.008-.214 1.75 1.75 0 00.748-.558 1.7 1.7 0 00.3-1.067 1.771 1.771 0 00-.261-1.02 1.746 1.746 0 00-.664-.581 2.978 2.978 0 00-.925-.272 7.608 7.608 0 00-1.02-.071h-2.419zM180.176 4.349h3.059l7.3 16.792h-4.175l-1.446-3.557h-6.523l-1.4 3.557h-4.079zm1.423 4.886l-2.04 5.217h4.1zm48.429-4.886h3.059l7.306 16.792h-4.176l-1.447-3.557h-6.523l-1.4 3.557h-4.08zm1.423 4.886l-2.04 5.217h4.1zM192.59 4.347h5.028l7.14 11.669h.047V4.347h3.7v16.792h-4.839l-7.329-11.954h-.047v11.954h-3.7zm23.133 3.273h-4.637V4.347h13.282V7.62h-4.947v13.519h-3.7zm-89.272 13.783c-3.9 0-6.112-2.283-6.112-6.421l.005-9.016h-1.9V4.349h6.112v1.617h-2.14l-.005 8.778c0 3.567 1.261 4.947 4.091 4.947 2.711 0 4.329-1.094 4.329-5.256l.005-8.469h-2.14V4.349h6.108v1.617h-1.9l-.005 8.755c-.002 4.137-2.072 6.682-6.448 6.682zm23.083-5.845c-.428 2.758-2.355 4.162-5.138 4.162-3.662 0-5.851-2.616-5.851-6.945v-.19c0-4.281 2.355-7.016 5.874-7.016a4.636 4.636 0 015.043 3.925h1.737V4.35h-1.855v1.857c-.88-1.57-2.735-2.283-4.875-2.283-4.685 0-8.062 3.639-8.062 8.681v.19c0 5.233 3.02 8.609 7.944 8.609 3.74 0 6.418-1.865 7.073-5.655zm22.39.416c0 3.2-2.705 5.429-6.576 5.429-3.1 0-5.328-1.042-6.615-3.1l2.537-2.171a5.379 5.379 0 004.39 2.287c1.6 0 2.6-.7 2.6-1.819 0-1.418-.926-1.734-3.267-2.39-2.763-.775-5.572-1.968-5.572-5.041 0-3.089 2.609-5.247 6.343-5.247 1.5 0 4.232.351 5.729 2.684l-2.359 2.052a4.434 4.434 0 00-3.787-1.752 2.033 2.033 0 00-2.261 1.925c0 1.224 1.633 1.759 3.607 2.286 2.529.662 5.231 1.641 5.231 4.857z" fill="#15395e"/><g fill-rule="evenodd"><path d="M102.331 49.881C99.26 37.935 89.789 27.2 76.115 19.057c-3.7-2.205-14.071-4.138-15.933-10.139-1.861-2.171-2.173.931-3.311 1.758-2.794-.827-2.69-5.276-6-6.722-1.658 1.551-4.244-.83-3.726 1.033.723 1.967 5.276 3.414 2.068 6.106-4.033.513-6.62-13.554-12.931-10.347-.929 1.034-.1 2.584-2.274 2.171-2.483 1.037 5.793 6.207-1.14 6.83-5.793-3.414-7.552-13.763-12.725-8.07-.722 1.446-1.757 3.823-3.931 3.623-3 3.826 10.657 5.171 2.9 10.037-4.862 2.066-11.69-4.45-11.379 1.446C7 19.369 2.556 13.055.383 19.158c-1.759 5.381 3.1 5.381 3.1 6.312-.308 6.725 6.934 2.483 10.451 1.761 1.654-.312 3.414-.312 3.828 1.859-.415 4.243-4.553 2.174-5.482 5.069.206 2.9 3 .105 3.308 3.21 4.035 6.621 7.346-5.279 10.036-5.794 2.069 1.034.415 6.2.311 6.827 1.447 4.244 2.792-.311 4.653 1.552 4.14-1.863 2.484-9.517 6.416-9.933 2.69-.62 1.947 1.323 1.862 1.656s-1.862 2.794-1.447 3.726c1.551 1.967.413 1.655 1.758 3.414 3.622 1.449 4.551-1.656 4.865-2.069.618.31.929.1 1.344.413 4.757-1.758 2.377-9.723 5.689-11.9 3.413.207-.725 5.07.311 6 1.344 1.656 1.757-.312 3.413-.931 5.276 1.551 2.174-1.863 3-4.345 1.344-.311.412-1.76 1.448-.725 6.518-.619-5.519-16.18 18.311-2.689C89.735 29.465 99.988 45.946 97.4 58.66l4.932-8.779z" fill="#79a540"/><path d="M102.336 49.844c-5.89-14.175-19.016-22.088-34.45-16.347-15.903 5.916-25.452 36.419-60.317 18.626-7.967 34.242 17.692 61.557 48.935 61.557 37.969-1.138 55.04-39.519 45.833-63.836zM79.162 73.123a18.417 18.417 0 010-36.832 18.416 18.416 0 110 36.832z" fill="#15395e"/></g></svg>